<?xml version="1.0" encoding="UTF-8" standalone="no"?>
<!-- Created with Inkscape (http://www.inkscape.org/) -->

<svg
   xmlns:dc="http://purl.org/dc/elements/1.1/"
   xmlns:cc="http://creativecommons.org/ns#"
   xmlns:rdf="http://www.w3.org/1999/02/22-rdf-syntax-ns#"
   xmlns:svg="http://www.w3.org/2000/svg"
   xmlns="http://www.w3.org/2000/svg"
   xmlns:sodipodi="http://sodipodi.sourceforge.net/DTD/sodipodi-0.dtd"
   xmlns:inkscape="http://www.inkscape.org/namespaces/inkscape"
   width="6.6975803mm"
   height="4.5000005mm"
   viewBox="0 0 6.6181729 4.6474323"
   version="1.1"
   id="svg8"
   inkscape:version="0.92.5 (2060ec1f9f, 2020-04-08)"
   sodipodi:docname="baru.svg">
  <defs
     id="defs2" />
  <sodipodi:namedview
     id="base"
     pagecolor="#ffffff"
     bordercolor="#666666"
     borderopacity="1.0"
     inkscape:pageopacity="0.0"
     inkscape:pageshadow="2"
     inkscape:zoom="0.98994949"
     inkscape:cx="92.270735"
     inkscape:cy="-46.983025"
     inkscape:document-units="mm"
     inkscape:current-layer="layer1"
     showgrid="false"
     inkscape:window-width="1366"
     inkscape:window-height="704"
     inkscape:window-x="0"
     inkscape:window-y="27"
     inkscape:window-maximized="1" />
  <metadata
     id="metadata5">
    <rdf:RDF>
      <cc:Work
         rdf:about="">
        <dc:format>image/svg+xml</dc:format>
        <dc:type
           rdf:resource="http://purl.org/dc/dcmitype/StillImage" />
        <dc:title />
      </cc:Work>
    </rdf:RDF>
  </metadata>
  <g
     inkscape:label="Layer 1"
     inkscape:groupmode="layer"
     id="layer1"
     transform="translate(-32.514666,-131.75497)">
    <g
       aria-label="Baru"
       transform="matrix(0.07019972,0,0,0.15654809,23.072261,21.064023)"
       style="font-style:normal;font-variant:normal;font-weight:bold;font-stretch:normal;font-size:39.99922943px;line-height:1.25;font-family:Verdana;-inkscape-font-specification:'Verdana, Bold';font-variant-ligatures:normal;font-variant-caps:normal;font-variant-numeric:normal;font-feature-settings:normal;text-align:start;letter-spacing:0px;word-spacing:0px;writing-mode:lr-tb;text-anchor:start;fill:#ff00ff;fill-opacity:1;stroke:none"
       id="flowRoot10">
      <path
         id="path78"
         d="m 230.81639,736.15462 h -7.03112 v -2.42183 q -1.95309,1.48435 -3.57415,2.26558 -1.62106,0.76171 -3.86711,0.76171 -3.63274,0 -5.60536,-2.08981 -1.95309,-2.0898 -1.95309,-6.17175 v -14.27707 h 7.07018 v 10.87869 q 0,1.66013 0.0977,2.77339 0.11719,1.09373 0.5078,1.81637 0.37109,0.72264 1.11326,1.05467 0.76171,0.33202 2.10934,0.33202 0.89842,0 1.99215,-0.33202 1.09373,-0.33203 2.10933,-0.97655 v -15.54657 h 7.03112 z m -25.83935,-15.23408 h -0.62499 q -0.44921,-0.15625 -1.44528,-0.23437 -0.99607,-0.0781 -1.66012,-0.0781 -1.50388,0 -2.6562,0.19531 -1.15232,0.19531 -2.48042,0.66405 v 14.68722 h -7.03112 v -21.93317 h 7.03112 v 3.22259 q 2.32417,-1.99215 4.04289,-2.63667 1.71871,-0.66405 3.164,-0.66405 0.37109,0 0.83983,0.0195 0.46874,0.0195 0.82029,0.0586 z m -29.33537,9.51153 v -4.57022 q -1.42575,0.11718 -3.08588,0.33202 -1.66012,0.19531 -2.51948,0.46874 -1.05467,0.33203 -1.62106,0.97655 -0.54687,0.62499 -0.54687,1.66012 0,0.68358 0.11719,1.11326 0.11718,0.42968 0.58592,0.8203 0.44921,0.39062 1.0742,0.58593 0.62499,0.17577 1.95309,0.17577 1.05467,0 2.12887,-0.42968 1.09372,-0.42968 1.91402,-1.13279 z m 0,3.39838 q -0.56639,0.42967 -1.40622,1.03513 -0.83983,0.60546 -1.582,0.95701 -1.03514,0.46875 -2.1484,0.68358 -1.11326,0.23438 -2.44136,0.23438 -3.12494,0 -5.23427,-1.93356 -2.10934,-1.93356 -2.10934,-4.94131 0,-2.4023 1.0742,-3.92571 1.0742,-1.52341 3.04682,-2.4023 1.95309,-0.87888 4.84365,-1.24997 2.89057,-0.37109 5.99598,-0.54687 v -0.11718 q 0,-1.81637 -1.48434,-2.49995 -1.48435,-0.70311 -4.37492,-0.70311 -1.73825,0 -3.71087,0.62498 -1.97261,0.60546 -2.83197,0.93749 h -0.64452 v -5.29287 q 1.11326,-0.29296 3.61321,-0.68358 2.51948,-0.41015 5.03897,-0.41015 5.99597,0 8.65217,1.85543 2.67573,1.8359 2.67573,5.78114 v 14.92159 h -6.97252 z m -18.47621,-6.58191 q 0,2.10933 -0.85935,3.76946 -0.83983,1.66012 -2.32418,2.75385 -1.71871,1.28904 -3.78899,1.8359 -2.05074,0.54687 -5.21474,0.54687 h -12.69507 v -29.08147 h 11.28885 q 3.51555,0 5.13662,0.23437 1.64059,0.23437 3.24212,1.03513 1.66013,0.83983 2.46089,2.26559 0.8203,1.40622 0.8203,3.22259 0,2.10933 -1.11326,3.7304 -1.11326,1.60153 -3.14447,2.49995 v 0.15625 q 2.85151,0.56639 4.51163,2.3437 1.67965,1.77731 1.67965,4.68741 z m -9.60919,-11.95289 q 0,-0.72265 -0.37108,-1.44529 -0.35156,-0.72264 -1.26951,-1.0742 -0.8203,-0.31249 -2.05074,-0.33202 -1.21091,-0.0391 -3.4179,-0.0391 h -0.70311 v 6.15222 h 1.17185 q 1.77731,0 3.02728,-0.0586 1.24998,-0.0586 1.97262,-0.39062 1.01561,-0.44921 1.3281,-1.15232 0.31249,-0.72264 0.31249,-1.66012 z m 1.83591,11.83571 q 0,-1.3867 -0.54687,-2.12887 -0.52733,-0.7617 -1.81637,-1.13279 -0.87889,-0.2539 -2.42183,-0.27343 -1.54294,-0.0195 -3.22259,-0.0195 h -1.64059 v 7.24595 h 0.54686 q 3.164,0 4.53116,-0.0195 1.36716,-0.0195 2.51949,-0.5078 1.17185,-0.48827 1.60153,-1.28904 0.44921,-0.8203 0.44921,-1.87496 z"
         inkscape:connector-curvature="0" />
    </g>
  </g>
</svg>
