<svg xmlns="http://www.w3.org/2000/svg" width="20" height="15" xml:space="preserve"><g style="opacity:1;fill:none;fill-rule:nonzero;stroke:none;stroke-width:0;stroke-linecap:butt;stroke-linejoin:miter;stroke-miterlimit:10;stroke-dasharray:none"><path d="m43.077 63.077-.14-.002a5.004 5.004 0 0 1-3.588-1.666L23.195 43.332a5 5 0 0 1 7.456-6.664l12.63 14.133 38.184-38.184a5 5 0 0 1 7.07 7.071L46.612 61.612a4.994 4.994 0 0 1-3.535 1.465z" style="opacity:1;fill:#00a510;fill-rule:nonzero;stroke:none;stroke-width:1;stroke-linecap:butt;stroke-linejoin:miter;stroke-miterlimit:10;stroke-dasharray:none" transform="scale(.22222 .16667)"/><path d="M45 90C20.187 90 0 69.813 0 45S20.187 0 45 0a5 5 0 1 1 0 10c-19.299 0-35 15.701-35 35s15.701 35 35 35 35-15.701 35-35a5 5 0 1 1 10 0c0 24.813-20.187 45-45 45z" style="opacity:1;fill:#00a510;fill-rule:nonzero;stroke:none;stroke-width:1;stroke-linecap:butt;stroke-linejoin:miter;stroke-miterlimit:10;stroke-dasharray:none" transform="scale(.22222 .16667)"/></g></svg>