<?xml version="1.0" encoding="UTF-8" standalone="no"?>
<!-- Created with Inkscape (http://www.inkscape.org/) -->

<svg
   xmlns:dc="http://purl.org/dc/elements/1.1/"
   xmlns:cc="http://creativecommons.org/ns#"
   xmlns:rdf="http://www.w3.org/1999/02/22-rdf-syntax-ns#"
   xmlns:svg="http://www.w3.org/2000/svg"
   xmlns="http://www.w3.org/2000/svg"
   xmlns:sodipodi="http://sodipodi.sourceforge.net/DTD/sodipodi-0.dtd"
   xmlns:inkscape="http://www.inkscape.org/namespaces/inkscape"
   width="6.7986107mm"
   height="4.1237707mm"
   viewBox="0 0 6.7180054 4.2588763"
   version="1.1"
   id="svg107"
   inkscape:version="0.92.5 (2060ec1f9f, 2020-04-08)"
   sodipodi:docname="lama.svg">
  <defs
     id="defs101" />
  <sodipodi:namedview
     id="base"
     pagecolor="#ffffff"
     bordercolor="#666666"
     borderopacity="1.0"
     inkscape:pageopacity="0.0"
     inkscape:pageshadow="2"
     inkscape:zoom="1.4"
     inkscape:cx="41.860003"
     inkscape:cy="9.408376"
     inkscape:document-units="mm"
     inkscape:current-layer="layer1"
     showgrid="false"
     inkscape:window-width="1366"
     inkscape:window-height="704"
     inkscape:window-x="0"
     inkscape:window-y="27"
     inkscape:window-maximized="1" />
  <metadata
     id="metadata104">
    <rdf:RDF>
      <cc:Work
         rdf:about="">
        <dc:format>image/svg+xml</dc:format>
        <dc:type
           rdf:resource="http://purl.org/dc/dcmitype/StillImage" />
        <dc:title />
      </cc:Work>
    </rdf:RDF>
  </metadata>
  <g
     inkscape:label="Layer 1"
     inkscape:groupmode="layer"
     id="layer1"
     transform="translate(-24.572543,-196.90725)">
    <g
       aria-label="Lama"
       transform="matrix(0.06137838,0,0,0.14355132,19.278335,92.124737)"
       style="font-style:normal;font-variant:normal;font-weight:bold;font-stretch:normal;font-size:40px;line-height:1.25;font-family:Verdana;-inkscape-font-specification:'Verdana, Bold';font-variant-ligatures:normal;font-variant-caps:normal;font-variant-numeric:normal;font-feature-settings:normal;text-align:start;letter-spacing:0px;word-spacing:0px;writing-mode:lr-tb;text-anchor:start;fill:#800080;fill-opacity:1;stroke:none"
       id="flowRoot109">
      <path
         id="path25"
         d="m 191.13281,753.29009 v -4.57031 q -1.42578,0.11718 -3.08594,0.33203 -1.66015,0.19531 -2.51953,0.46875 -1.05468,0.33203 -1.62109,0.97656 -0.54688,0.625 -0.54688,1.66016 0,0.68359 0.11719,1.11328 0.11719,0.42968 0.58594,0.82031 0.44922,0.39062 1.07422,0.58594 0.625,0.17578 1.95312,0.17578 1.05469,0 2.12891,-0.42969 1.09375,-0.42969 1.91406,-1.13281 z m 0,3.39844 q -0.5664,0.42968 -1.40625,1.03515 -0.83984,0.60547 -1.58203,0.95703 -1.03516,0.46875 -2.14844,0.6836 -1.11328,0.23437 -2.4414,0.23437 -3.125,0 -5.23438,-1.93359 -2.10937,-1.9336 -2.10937,-4.94141 0,-2.40234 1.07422,-3.92578 1.07421,-1.52344 3.04687,-2.40234 1.95313,-0.87891 4.84375,-1.25 2.89063,-0.3711 5.99609,-0.54688 v -0.11719 q 0,-1.8164 -1.48437,-2.5 -1.48438,-0.70312 -4.375,-0.70312 -1.73828,0 -3.71094,0.625 -1.97265,0.60547 -2.83203,0.9375 H 178.125 v -5.29297 q 1.11328,-0.29297 3.61328,-0.68359 2.51953,-0.41016 5.03906,-0.41016 5.9961,0 8.65235,1.85547 2.67578,1.83594 2.67578,5.78125 v 14.92187 h -6.97266 z m -34.16015,-13.22266 v 15.54687 h -7.07032 v -10.95703 q 0,-1.60156 -0.0781,-2.71484 -0.0781,-1.13281 -0.42969,-1.83594 -0.35156,-0.70312 -1.07422,-1.01562 -0.70312,-0.33203 -1.99219,-0.33203 -1.03515,0 -2.01171,0.42968 -0.97657,0.41016 -1.75782,0.87891 v 15.54687 h -7.03125 v -21.93359 h 7.03125 v 2.42188 q 1.81641,-1.42579 3.47657,-2.22657 1.66015,-0.80078 3.67187,-0.80078 2.16797,0 3.82813,0.97656 1.66015,0.95704 2.59765,2.83204 2.10938,-1.77735 4.10156,-2.79297 1.99219,-1.01563 3.90625,-1.01563 3.55469,0 5.39063,2.12891 1.85547,2.1289 1.85547,6.13281 v 14.27734 h -7.07031 v -10.95703 q 0,-1.62109 -0.0781,-2.73437 -0.0586,-1.11328 -0.41016,-1.81641 -0.33203,-0.70312 -1.05468,-1.01562 -0.72266,-0.33203 -2.03125,-0.33203 -0.87891,0 -1.71875,0.3125 -0.83985,0.29296 -2.05078,0.99609 z m -34.88282,9.82422 v -4.57031 q -1.42578,0.11718 -3.08593,0.33203 -1.66016,0.19531 -2.51953,0.46875 -1.05469,0.33203 -1.6211,0.97656 -0.54687,0.625 -0.54687,1.66016 0,0.68359 0.11718,1.11328 0.11719,0.42968 0.58594,0.82031 0.44922,0.39062 1.07422,0.58594 0.625,0.17578 1.95313,0.17578 1.05468,0 2.1289,-0.42969 1.09375,-0.42969 1.91406,-1.13281 z m 0,3.39844 q -0.5664,0.42968 -1.40625,1.03515 -0.83984,0.60547 -1.58203,0.95703 -1.03515,0.46875 -2.14843,0.6836 -1.11329,0.23437 -2.44141,0.23437 -3.125,0 -5.23438,-1.93359 -2.10937,-1.9336 -2.10937,-4.94141 0,-2.40234 1.07422,-3.92578 1.07422,-1.52344 3.04687,-2.40234 1.95313,-0.87891 4.84375,-1.25 2.89063,-0.3711 5.9961,-0.54688 v -0.11719 q 0,-1.8164 -1.48438,-2.5 -1.48437,-0.70312 -4.375,-0.70312 -1.73828,0 -3.71094,0.625 -1.97265,0.60547 -2.83203,0.9375 h -0.64453 v -5.29297 q 1.11328,-0.29297 3.61328,-0.68359 2.51953,-0.41016 5.03907,-0.41016 5.99609,0 8.65234,1.85547 2.67578,1.83594 2.67578,5.78125 v 14.92187 h -6.97266 z m -17.40234,2.32421 H 83.710937 v -29.08203 h 7.5 v 23.45703 H 104.6875 Z"
         inkscape:connector-curvature="0" />
    </g>
  </g>
</svg>
